<?xml version="1.0" encoding="UTF-8"?>
<svg width="180px" height="180px" viewBox="0 0 180 180" version="1.1" xmlns="http://www.w3.org/2000/svg" xmlns:xlink="http://www.w3.org/1999/xlink">
    <title>SVG</title>
    <g id="SVG" stroke="none" stroke-width="1" fill="none" fill-rule="evenodd">
        <path d="M156,157 C153.795699,151.914191 153.795699,151.471947 152.693548,136.877888 C151.591398,120.514851 149.166667,112.9967 142.333333,105.920792 L132.413978,95.7491749 C146.521505,90.6633663 155.11828,77.6171617 155.11828,60.369637 C155.11828,50.1980198 151.370968,40.9108911 144.978495,34.2772277 L133.736559,23 C139.467742,30.5181518 141.892473,37.5940594 141.892473,47.1023102 C141.892473,60.1485149 136.822581,71.2046205 128.005376,77.8382838 C124.037634,80.4917492 121.172043,81.8184818 115,83.8085809 C131.752688,90 138.365591,100.613861 139.467742,123.389439 C140.569892,137.983498 140.569892,138.425743 142.994624,143.732673 L116.543011,143.732673 L129.768817,157 L156,157 Z M62.3561644,70 L62.3561644,43.4078212 L103.263569,43.408181 C107.182024,43.4116886 108.74554,43.4493959 111.773973,43.8547486 L112.886986,43.8547486 C113.554795,44.0782123 113.554795,44.0782123 114,44.0782123 C112.664384,38.4916201 110.883562,35.8100559 107.099315,33.1284916 C103.579086,30.6989736 99.4064882,30.0158322 88.778481,30 L49,30 L49,70 L62.3561644,70 Z M62.25,157 L62.25,102.333333 L84.8421053,102.333333 C95.5789474,102.333333 103.855263,103.666667 109,105.888889 C102.960526,93.4444444 92.8947368,89 71.1973684,89 L48.8289474,89 L48.8289474,143.666667 L24,143.666667 L37.4210526,157 L62.25,157 Z" id="R" fill="#FFFFFF" fill-rule="nonzero"></path>
    </g>
</svg>