<?xml version="1.0" encoding="UTF-8"?>
<svg width="180px" height="180px" viewBox="0 0 180 180" version="1.1" xmlns="http://www.w3.org/2000/svg" xmlns:xlink="http://www.w3.org/1999/xlink">
    <title>SVG</title>
    <g id="SVG" stroke="none" stroke-width="1" fill="none" fill-rule="evenodd">
        <path d="M138,139 C136.387097,135.280528 136.387097,134.957096 135.580645,124.283828 C134.774194,112.316832 133,106.818482 128,101.643564 L120.741935,94.2046205 C131.064516,90.4851485 137.354839,80.9438944 137.354839,68.330033 C137.354839,60.8910891 134.612903,54.0990099 129.935484,49.2475248 L121.709677,41 C125.903226,46.4983498 127.677419,51.6732673 127.677419,58.6270627 C127.677419,68.1683168 123.967742,76.2541254 117.516129,81.1056106 C114.612903,83.0462046 112.516129,84.0165017 108,85.4719472 C120.258065,90 125.096774,97.7623762 125.903226,114.419142 C126.709677,125.092409 126.709677,125.415842 128.483871,129.29703 L109.129032,129.29703 L118.806452,139 L138,139 Z M69.6575342,75 L69.6575342,55.7206704 L99.2367346,55.7209312 C102.070079,55.7234743 103.200621,55.750812 105.390411,56.0446927 L106.195205,56.0446927 C106.678082,56.2067039 106.678082,56.2067039 107,56.2067039 C106.034247,52.1564246 104.746575,50.2122905 102.010274,48.2681564 C99.4648773,46.5067559 96.4477684,46.0114783 88.7629016,46 L60,46 L60,75 L69.6575342,75 Z M69.9,139 L69.9,98.8039216 L86.3789474,98.8039216 C94.2105263,98.8039216 100.247368,99.7843137 104,101.418301 C99.5947368,92.2679739 92.2526316,89 76.4263158,89 L60.1105263,89 L60.1105263,129.196078 L42,129.196078 L51.7894737,139 L69.9,139 Z" id="R" fill="#FFFFFF" fill-rule="nonzero"></path>
    </g>
</svg>